<?xml version="1.0" encoding="UTF-8"?>
<svg width="24" height="24" viewBox="0 0 24 24" fill="none" xmlns="http://www.w3.org/2000/svg">
    <path fill-rule="evenodd" clip-rule="evenodd" d="M8.4 4.8C4.4 4.8 1.2 7.4 1.2 10.6C1.2 12.4 2.2 14 3.8 15C4 15.2 4.2 15.4 4 15.8L3.4 17.4C3.4 17.4 3.2 17.8 3.4 18C3.6 18.2 4 18 4 18L6 17C6.2 16.8 6.6 16.8 6.8 17C7.4 17.2 8 17.2 8.6 17.2C8.8 17.2 8.8 17.2 8.8 17.2C8.6 16.8 8.6 16.2 8.6 15.8C8.6 12.6 11.8 10 15.8 10C16 10 16.2 10 16.4 10C15.8 7 12.4 4.8 8.4 4.8Z" fill="white"/>
    <path fill-rule="evenodd" clip-rule="evenodd" d="M15.6 11.2C12.2 11.2 9.6 13.4 9.6 16C9.6 18.6 12.2 20.8 15.6 20.8C16.2 20.8 16.8 20.8 17.2 20.6C17.4 20.6 17.8 20.4 18 20.6L19.4 21.4C19.4 21.4 19.8 21.6 20 21.4C20.2 21.2 20 20.8 20 20.8L19.6 19.6C19.4 19.2 19.6 19 19.8 18.8C21 18 21.8 17 21.8 15.6C21.8 13.2 19 11.2 15.6 11.2ZM13.4 15.2C13 15.2 12.6 14.8 12.6 14.4C12.6 14 13 13.6 13.4 13.6C13.8 13.6 14.2 14 14.2 14.4C14.2 14.8 13.8 15.2 13.4 15.2ZM17.8 15.2C17.4 15.2 17 14.8 17 14.4C17 14 17.4 13.6 17.8 13.6C18.2 13.6 18.6 14 18.6 14.4C18.6 14.8 18.2 15.2 17.8 15.2Z" fill="white"/>
</svg> 